<mxfile host="app.diagrams.net" modified="2023-10-18T12:38:01.967Z" agent="Mozilla/5.0 (Windows NT 10.0; Win64; x64) AppleWebKit/537.36 (KHTML, like Gecko) Chrome/118.0.0.0 Safari/537.36" etag="i9o0QIJmybDjr1Vv5UNV" version="22.0.4" type="device">
  <diagram name="Seite-1" id="gc1YbI-Wx7_Q_iwZn_eA">
    <mxGraphModel dx="1434" dy="1585" grid="1" gridSize="10" guides="1" tooltips="1" connect="1" arrows="1" fold="1" page="1" pageScale="1" pageWidth="1169" pageHeight="827" math="0" shadow="0">
      <root>
        <mxCell id="0" />
        <mxCell id="1" parent="0" />
        <mxCell id="ejHJoWQ4-AMJ1VvW92XO-1" value="&amp;lt;&amp;lt;System&amp;gt;&amp;gt;" style="rounded=0;whiteSpace=wrap;html=1;verticalAlign=top;strokeColor=#0000FF;strokeWidth=2;" vertex="1" parent="1">
          <mxGeometry x="130" y="80" width="500" height="240" as="geometry" />
        </mxCell>
        <mxCell id="ejHJoWQ4-AMJ1VvW92XO-7" style="edgeStyle=orthogonalEdgeStyle;rounded=0;orthogonalLoop=1;jettySize=auto;html=1;entryX=0;entryY=0.5;entryDx=0;entryDy=0;" edge="1" parent="1" source="yt_74iejyjVCjCeiJqDR-1" target="yt_74iejyjVCjCeiJqDR-2">
          <mxGeometry relative="1" as="geometry" />
        </mxCell>
        <mxCell id="ejHJoWQ4-AMJ1VvW92XO-9" style="edgeStyle=orthogonalEdgeStyle;rounded=0;orthogonalLoop=1;jettySize=auto;html=1;entryX=0.5;entryY=0;entryDx=0;entryDy=0;" edge="1" parent="1" source="yt_74iejyjVCjCeiJqDR-1" target="yt_74iejyjVCjCeiJqDR-5">
          <mxGeometry relative="1" as="geometry" />
        </mxCell>
        <mxCell id="ejHJoWQ4-AMJ1VvW92XO-10" style="edgeStyle=orthogonalEdgeStyle;rounded=1;orthogonalLoop=1;jettySize=auto;html=1;entryX=0.5;entryY=0;entryDx=0;entryDy=0;" edge="1" parent="1" source="yt_74iejyjVCjCeiJqDR-1" target="ejHJoWQ4-AMJ1VvW92XO-3">
          <mxGeometry relative="1" as="geometry">
            <Array as="points">
              <mxPoint x="460" y="200" />
              <mxPoint x="460" y="340" />
              <mxPoint x="540" y="340" />
            </Array>
          </mxGeometry>
        </mxCell>
        <mxCell id="ejHJoWQ4-AMJ1VvW92XO-11" style="edgeStyle=orthogonalEdgeStyle;rounded=1;orthogonalLoop=1;jettySize=auto;html=1;entryX=0.5;entryY=0;entryDx=0;entryDy=0;" edge="1" parent="1" source="yt_74iejyjVCjCeiJqDR-1" target="ejHJoWQ4-AMJ1VvW92XO-2">
          <mxGeometry relative="1" as="geometry" />
        </mxCell>
        <mxCell id="yt_74iejyjVCjCeiJqDR-1" value="TI-Messenger Client&lt;br&gt;(ePA FdV)" style="rounded=0;whiteSpace=wrap;html=1;strokeColor=#0000FF;strokeWidth=2;" parent="1" vertex="1">
          <mxGeometry x="160" y="160" width="120" height="80" as="geometry" />
        </mxCell>
        <mxCell id="ejHJoWQ4-AMJ1VvW92XO-8" style="edgeStyle=orthogonalEdgeStyle;rounded=0;orthogonalLoop=1;jettySize=auto;html=1;entryX=0;entryY=0.5;entryDx=0;entryDy=0;startArrow=classic;startFill=1;" edge="1" parent="1" source="yt_74iejyjVCjCeiJqDR-2" target="ejHJoWQ4-AMJ1VvW92XO-6">
          <mxGeometry relative="1" as="geometry" />
        </mxCell>
        <mxCell id="ejHJoWQ4-AMJ1VvW92XO-12" style="edgeStyle=orthogonalEdgeStyle;rounded=1;orthogonalLoop=1;jettySize=auto;html=1;entryX=0.5;entryY=0;entryDx=0;entryDy=0;" edge="1" parent="1" source="yt_74iejyjVCjCeiJqDR-2" target="ejHJoWQ4-AMJ1VvW92XO-4">
          <mxGeometry relative="1" as="geometry" />
        </mxCell>
        <mxCell id="ejHJoWQ4-AMJ1VvW92XO-14" style="edgeStyle=orthogonalEdgeStyle;rounded=0;orthogonalLoop=1;jettySize=auto;html=1;entryX=0.5;entryY=0;entryDx=0;entryDy=0;" edge="1" parent="1" source="yt_74iejyjVCjCeiJqDR-2" target="ejHJoWQ4-AMJ1VvW92XO-3">
          <mxGeometry relative="1" as="geometry" />
        </mxCell>
        <mxCell id="ejHJoWQ4-AMJ1VvW92XO-15" style="edgeStyle=orthogonalEdgeStyle;rounded=1;orthogonalLoop=1;jettySize=auto;html=1;entryX=0.5;entryY=0;entryDx=0;entryDy=0;" edge="1" parent="1" source="yt_74iejyjVCjCeiJqDR-2" target="ejHJoWQ4-AMJ1VvW92XO-2">
          <mxGeometry relative="1" as="geometry" />
        </mxCell>
        <mxCell id="ejHJoWQ4-AMJ1VvW92XO-17" style="edgeStyle=orthogonalEdgeStyle;rounded=0;orthogonalLoop=1;jettySize=auto;html=1;entryX=0.5;entryY=1;entryDx=0;entryDy=0;" edge="1" parent="1" source="yt_74iejyjVCjCeiJqDR-2" target="ejHJoWQ4-AMJ1VvW92XO-16">
          <mxGeometry relative="1" as="geometry" />
        </mxCell>
        <mxCell id="ejHJoWQ4-AMJ1VvW92XO-21" style="edgeStyle=orthogonalEdgeStyle;rounded=1;orthogonalLoop=1;jettySize=auto;html=1;entryX=1;entryY=0.5;entryDx=0;entryDy=0;" edge="1" parent="1" source="yt_74iejyjVCjCeiJqDR-2" target="yt_74iejyjVCjCeiJqDR-5">
          <mxGeometry relative="1" as="geometry">
            <Array as="points">
              <mxPoint x="300" y="200" />
              <mxPoint x="300" y="400" />
            </Array>
          </mxGeometry>
        </mxCell>
        <mxCell id="yt_74iejyjVCjCeiJqDR-2" value="TI-Messenger Fachdienst&lt;br&gt;(für Versicherte)" style="rounded=0;whiteSpace=wrap;html=1;strokeColor=#0000FF;strokeWidth=2;" parent="1" vertex="1">
          <mxGeometry x="480" y="160" width="120" height="80" as="geometry" />
        </mxCell>
        <mxCell id="ejHJoWQ4-AMJ1VvW92XO-13" style="edgeStyle=orthogonalEdgeStyle;rounded=0;orthogonalLoop=1;jettySize=auto;html=1;" edge="1" parent="1" source="yt_74iejyjVCjCeiJqDR-3" target="yt_74iejyjVCjCeiJqDR-1">
          <mxGeometry relative="1" as="geometry" />
        </mxCell>
        <mxCell id="yt_74iejyjVCjCeiJqDR-3" value="Versicherter" style="shape=umlActor;verticalLabelPosition=bottom;verticalAlign=top;html=1;outlineConnect=0;strokeWidth=2;" parent="1" vertex="1">
          <mxGeometry x="30" y="170" width="30" height="60" as="geometry" />
        </mxCell>
        <mxCell id="yt_74iejyjVCjCeiJqDR-5" value="&amp;lt;&amp;lt;extern&amp;gt;&amp;gt;&lt;br&gt;&lt;br&gt;Zero Trust&lt;br&gt;&amp;nbsp;" style="rounded=0;whiteSpace=wrap;html=1;strokeColor=#EA6B66;strokeWidth=2;" parent="1" vertex="1">
          <mxGeometry x="160" y="360" width="120" height="80" as="geometry" />
        </mxCell>
        <mxCell id="ejHJoWQ4-AMJ1VvW92XO-2" value="&amp;lt;&amp;lt;extern&amp;gt;&amp;gt;&lt;br&gt;&lt;br&gt;Authentisierung und Authorisierung&lt;br&gt;&amp;nbsp;" style="rounded=0;whiteSpace=wrap;html=1;strokeWidth=2;" vertex="1" parent="1">
          <mxGeometry x="320" y="360" width="120" height="80" as="geometry" />
        </mxCell>
        <mxCell id="ejHJoWQ4-AMJ1VvW92XO-3" value="&amp;lt;&amp;lt;extern&amp;gt;&amp;gt;&lt;br&gt;&lt;br&gt;VZD&lt;br&gt;&amp;nbsp;" style="rounded=0;whiteSpace=wrap;html=1;strokeWidth=2;" vertex="1" parent="1">
          <mxGeometry x="480" y="360" width="120" height="80" as="geometry" />
        </mxCell>
        <mxCell id="ejHJoWQ4-AMJ1VvW92XO-4" value="&amp;lt;&amp;lt;extern&amp;gt;&amp;gt;&lt;br&gt;&lt;br&gt;Komponenten PKI&lt;br&gt;&amp;nbsp;" style="rounded=0;whiteSpace=wrap;html=1;strokeWidth=2;" vertex="1" parent="1">
          <mxGeometry x="640" y="360" width="120" height="80" as="geometry" />
        </mxCell>
        <mxCell id="ejHJoWQ4-AMJ1VvW92XO-6" value="&amp;lt;&amp;lt;extern&amp;gt;&amp;gt;&lt;br&gt;&lt;br&gt;TI-Messenger Fachdienst&lt;br&gt;(für LEI und KT)&lt;br&gt;&amp;nbsp;" style="rounded=0;whiteSpace=wrap;html=1;verticalAlign=top;strokeWidth=2;" vertex="1" parent="1">
          <mxGeometry x="720" y="160" width="120" height="80" as="geometry" />
        </mxCell>
        <mxCell id="ejHJoWQ4-AMJ1VvW92XO-18" style="edgeStyle=orthogonalEdgeStyle;rounded=1;orthogonalLoop=1;jettySize=auto;html=1;entryX=1;entryY=0.5;entryDx=0;entryDy=0;" edge="1" parent="1" source="ejHJoWQ4-AMJ1VvW92XO-16" target="yt_74iejyjVCjCeiJqDR-1">
          <mxGeometry relative="1" as="geometry">
            <Array as="points">
              <mxPoint x="320" />
              <mxPoint x="320" y="200" />
            </Array>
          </mxGeometry>
        </mxCell>
        <mxCell id="ejHJoWQ4-AMJ1VvW92XO-16" value="&amp;lt;&amp;lt;extern&amp;gt;&amp;gt;&lt;br&gt;&lt;br&gt;Push Notification Service&lt;br&gt;&amp;nbsp;" style="rounded=0;whiteSpace=wrap;html=1;strokeWidth=2;" vertex="1" parent="1">
          <mxGeometry x="480" y="-40" width="120" height="80" as="geometry" />
        </mxCell>
        <mxCell id="ejHJoWQ4-AMJ1VvW92XO-20" style="edgeStyle=orthogonalEdgeStyle;rounded=0;orthogonalLoop=1;jettySize=auto;html=1;entryX=0.5;entryY=0;entryDx=0;entryDy=0;startArrow=classic;startFill=1;" edge="1" parent="1" source="ejHJoWQ4-AMJ1VvW92XO-19" target="yt_74iejyjVCjCeiJqDR-1">
          <mxGeometry relative="1" as="geometry" />
        </mxCell>
        <mxCell id="ejHJoWQ4-AMJ1VvW92XO-19" value="TI-Messenger Client&lt;br&gt;(LE)" style="rounded=0;whiteSpace=wrap;html=1;strokeColor=#000000;strokeWidth=2;" vertex="1" parent="1">
          <mxGeometry x="160" y="-40" width="120" height="80" as="geometry" />
        </mxCell>
      </root>
    </mxGraphModel>
  </diagram>
</mxfile>
